<?xml version="1.0" encoding="UTF-8"?>
<svg width="291px" height="29px" viewBox="0 0 291 29" version="1.1" xmlns="http://www.w3.org/2000/svg" xmlns:xlink="http://www.w3.org/1999/xlink">
    <!-- Generator: Sketch 54.1 (76490) - https://sketchapp.com -->
    <title>BB_LOGO</title>
    <desc>Created with Sketch.</desc>
    <g id="BB_BANNERS" stroke="none" stroke-width="1" fill="none" fill-rule="evenodd">
        <g id="970x250_2" transform="translate(-340.000000, -111.000000)" fill="#005699">
            <g id="BB_LOGO" transform="translate(340.000000, 111.000000)">
                <g transform="translate(0.000000, 0.000000)" id="Shape">
                    <path d="M14.7185328,10.3928571 L14.7185328,10.3366795 C17.3027027,9.71872587 18.4824324,7.75250965 18.4824324,5.67393822 C18.4824324,2.58416988 16.684749,0.168532819 12.415251,0.168532819 L0,0.168532819 L0,21.9092664 L12.1343629,21.9092664 C15.5050193,21.9092664 19.3250965,20.2239382 19.3250965,15.6735521 C19.3812741,12.9208494 17.6397683,10.842278 14.7185328,10.3928571 L14.7185328,10.3928571 Z M2.24710425,2.24710425 L11.9658301,2.24710425 C14.4376448,2.24710425 16.2353282,3.08976834 16.2353282,5.73011583 C16.2353282,8.65135135 14.269112,9.60637066 11.2355212,9.60637066 L2.24710425,9.60637066 L2.24710425,2.24710425 Z M11.7972973,19.8868726 L2.24710425,19.8868726 L2.24710425,11.6849421 L12.3028958,11.6849421 C14.9432432,11.6849421 16.9094595,12.5837838 16.9094595,15.7297297 C16.9094595,18.7071429 14.7185328,19.8868726 11.7972973,19.8868726 Z M36.796332,18.5947876 L36.796332,10.2805019 C36.796332,7.2469112 34.8301158,5.56158301 29.4932432,5.56158301 C24.0440154,5.56158301 22.246332,7.58397683 21.9092664,10.8984556 L23.9878378,10.8984556 C24.1563707,8.37046332 25.8416988,7.41544402 29.4370656,7.41544402 C33.1447876,7.41544402 34.7177606,8.25810811 34.7177606,10.5052124 C34.7177606,12.0781853 34.0998069,12.3590734 29.1561776,12.5837838 C25.673166,12.7523166 21.2351351,13.2579151 21.2351351,17.5274131 C21.2351351,21.0666023 24.7181467,22.3025097 27.4146718,22.3025097 C32.6391892,22.3025097 34.1559846,20.1677606 34.8301158,19.1565637 L34.8862934,19.1565637 C34.942471,20.392471 35.0548263,21.965444 37.3581081,21.965444 C38.088417,21.965444 38.8187259,21.7969112 39.2681467,21.7407336 L39.2681467,20.2239382 C38.8749035,20.2801158 38.4816602,20.2801158 38.088417,20.2801158 C37.1333977,20.3362934 36.796332,19.8868726 36.796332,18.5947876 L36.796332,18.5947876 Z M34.7177606,15.8420849 C34.7177606,19.1003861 31.1223938,20.7295367 28.0888031,20.7295367 C25.6169884,20.7295367 23.4822394,19.9992278 23.4822394,17.5274131 C23.4822394,15.6173745 24.9990347,14.830888 27.6393822,14.6061776 C32.1897683,14.1567568 33.7065637,14.0444015 34.7177606,13.4264479 L34.7177606,15.8420849 L34.7177606,15.8420849 Z M44.6050193,1.12355212 L42.3579151,1.12355212 L42.3579151,6.12335907 L38.8749035,6.12335907 L38.8749035,7.80868726 L42.3579151,7.80868726 L42.3579151,18.257722 C42.3579151,20.8418919 43.1444015,22.1901544 46.6274131,22.1901544 C47.357722,22.1901544 48.2565637,22.1339768 49.0992278,22.0216216 L49.0992278,20.111583 C48.6498069,20.2239382 47.9756757,20.2801158 46.8521236,20.2801158 C44.9982625,20.2801158 44.6050193,19.6621622 44.6050193,18.257722 L44.6050193,7.80868726 L49.0992278,7.80868726 L49.0992278,6.12335907 L44.6050193,6.12335907 L44.6050193,1.12355212 Z M61.1212355,5.61776062 C57.5820463,5.61776062 55.2225869,7.52779923 54.5484556,9.21312741 L54.492278,9.21312741 L54.492278,0 L52.2451737,0 L52.2451737,21.965444 L54.492278,21.965444 L54.492278,13.3702703 C54.492278,9.77490347 56.5146718,7.52779923 60.9527027,7.52779923 C63.8177606,7.52779923 65.7277992,8.65135135 65.7277992,11.7411197 L65.7277992,21.965444 L67.9749035,21.965444 L67.9749035,12.1343629 C67.9749035,8.37046332 66.4019305,5.61776062 61.1212355,5.61776062 L61.1212355,5.61776062 Z M93.4795367,12.5276062 L91.4009653,12.5276062 C91.28861,13.4264479 90.8953668,15.2803089 90.2212355,16.1791506 L83.5361004,9.88725869 C85.7832046,8.93223938 88.0864865,7.41544402 88.0864865,4.60656371 C88.0864865,2.58416988 86.7382239,0.168532819 82.7496139,0.168532819 C79.5474903,0.168532819 77.4127413,2.02239382 77.4127413,4.66274131 C77.4127413,6.68513514 78.592471,7.97722008 80.165444,9.43783784 C75.9521236,11.2355212 74.1544402,12.9208494 74.1544402,15.9544402 C74.1544402,19.6621622 76.8509653,22.4710425 82.4125483,22.4710425 C85.8955598,22.4710425 88.9291506,21.2351351 90.5021236,19.2689189 L93.3671815,21.965444 L96.4569498,21.965444 L91.7942085,17.5835907 C92.9177606,15.8420849 93.4795367,13.7073359 93.4795367,12.5276062 L93.4795367,12.5276062 Z M79.5474903,4.60656371 C79.5474903,3.03359073 81.0642857,2.07857143 82.5810811,2.07857143 C85.0528958,2.07857143 86.0079151,3.31447876 86.0079151,4.71891892 C86.0079151,6.29189189 84.8281853,7.52779923 82.1878378,8.70752896 C79.7722008,6.29189189 79.5474903,5.50540541 79.5474903,4.60656371 Z M82.5249035,20.5610039 C78.2554054,20.5610039 76.4015444,18.3700772 76.4015444,16.0667954 C76.4015444,13.6511583 78.030695,12.0781853 81.457529,10.7861004 L88.9853282,17.9206564 C87.0752896,19.9430502 85.1090734,20.5610039 82.5249035,20.5610039 Z M117.972973,10.3928571 L117.972973,10.3366795 C120.557143,9.71872587 121.736873,7.75250965 121.736873,5.67393822 C121.736873,2.58416988 119.939189,0.168532819 115.669691,0.168532819 L103.25444,0.168532819 L103.25444,21.9092664 L115.388803,21.9092664 C118.759459,21.9092664 122.579537,20.2239382 122.579537,15.6735521 C122.579537,12.9208494 120.838031,10.842278 117.972973,10.3928571 Z M105.501544,2.24710425 L115.22027,2.24710425 C117.692085,2.24710425 119.489768,3.08976834 119.489768,5.73011583 C119.489768,8.65135135 117.523552,9.60637066 114.489961,9.60637066 L105.501544,9.60637066 L105.501544,2.24710425 Z M114.99556,19.8868726 L105.501544,19.8868726 L105.501544,11.6849421 L115.557336,11.6849421 C118.197683,11.6849421 120.1639,12.5837838 120.1639,15.7297297 C120.107722,18.7071429 117.916795,19.8868726 114.99556,19.8868726 Z M133.53417,5.61776062 C127.410811,5.61776062 124.489575,9.60637066 124.489575,14.0444015 C124.489575,18.4824324 127.410811,22.4710425 133.53417,22.4710425 C139.657529,22.4710425 142.578764,18.4824324 142.578764,14.0444015 C142.578764,9.60637066 139.657529,5.61776062 133.53417,5.61776062 Z M133.53417,20.5610039 C129.264672,20.5610039 126.792857,17.8644788 126.792857,14.0444015 C126.792857,10.2243243 129.264672,7.52779923 133.53417,7.52779923 C137.803668,7.52779923 140.275483,10.2243243 140.275483,14.0444015 C140.33166,17.8083012 137.859846,20.5610039 133.53417,20.5610039 Z M160.218533,9.26930502 L160.162355,9.26930502 C159.094981,7.2469112 156.679344,5.61776062 153.701931,5.61776062 C147.747104,5.61776062 145.050579,9.60637066 145.050579,14.0444015 C145.050579,17.9206564 147.185328,22.4710425 153.701931,22.4710425 C157.578185,22.4710425 159.600579,20.1677606 160.162355,18.8194981 L160.218533,18.8194981 L160.218533,21.965444 L162.465637,21.965444 L162.465637,0 L160.218533,0 L160.218533,9.26930502 Z M153.701931,20.5610039 C149.095367,20.5610039 147.297683,17.1903475 147.297683,14.0444015 C147.297683,9.9996139 150.106564,7.52779923 153.701931,7.52779923 C158.308494,7.52779923 160.387066,10.7861004 160.387066,14.0444015 C160.330888,18.1453668 157.409653,20.5610039 153.701931,20.5610039 Z M173.307915,19.2689189 L166.84749,6.06718147 L164.375676,6.06718147 L172.128185,22.0216216 L171.060811,24.2125483 C170.330502,25.7855212 169.544015,26.1787645 167.914865,26.1787645 C167.296911,26.1787645 166.791313,26.1225869 166.285714,26.1225869 L166.285714,28.0326255 C166.959846,28.0888031 167.746332,28.0888031 168.476641,28.0888031 C171.004633,28.0888031 171.959653,27.4146718 173.139382,24.8866795 L181.790734,6.06718147 L179.318919,6.06718147 L173.307915,19.2689189 L173.307915,19.2689189 Z M216.115251,0.168532819 L209.991892,18.9318533 L209.935714,18.9318533 L203.47529,0.168532819 L200.666409,0.168532819 L194.205985,18.9318533 L194.149807,18.9318533 L188.138803,0.168532819 L185.610811,0.168532819 L192.857722,21.9092664 L195.498069,21.9092664 L201.958494,3.37065637 L202.014672,3.37065637 L208.587452,21.965444 L211.227799,21.965444 L218.587066,0.224710425 L216.115251,0.224710425 L216.115251,0.168532819 Z M227.40695,5.61776062 C221.283591,5.61776062 218.362355,9.60637066 218.362355,14.0444015 C218.362355,18.4824324 221.283591,22.4710425 227.40695,22.4710425 C233.530309,22.4710425 236.451544,18.4824324 236.451544,14.0444015 C236.451544,9.60637066 233.530309,5.61776062 227.40695,5.61776062 Z M227.40695,20.5610039 C223.137452,20.5610039 220.665637,17.8644788 220.665637,14.0444015 C220.665637,10.2243243 223.137452,7.52779923 227.40695,7.52779923 C231.676448,7.52779923 234.148263,10.2243243 234.148263,14.0444015 C234.148263,17.8083012 231.676448,20.5610039 227.40695,20.5610039 Z M242.013127,9.71872587 L241.95695,9.71872587 L241.95695,6.06718147 L239.709846,6.06718147 L239.709846,21.9092664 L241.95695,21.9092664 L241.95695,13.8758687 C241.95695,9.38166023 244.934363,7.86486486 247.35,7.86486486 C248.080309,7.86486486 248.698263,7.92104247 249.428571,8.03339768 L249.428571,5.73011583 C249.091506,5.67393822 248.698263,5.61776062 248.080309,5.61776062 C244.316409,5.61776062 242.799614,7.80868726 242.013127,9.71872587 L242.013127,9.71872587 Z M266.562741,6.06718147 L263.192085,6.06718147 L253.473359,13.7635135 L253.473359,0 L251.226255,0 L251.226255,21.965444 L253.473359,21.965444 L253.473359,16.2915058 L257.068726,13.5949807 L264.147104,21.965444 L267.124517,21.965444 L258.754054,12.1343629 L266.562741,6.06718147 Z M275.663514,12.8084942 C270.832239,12.1905405 269.764865,11.8534749 269.764865,10.1681467 C269.764865,7.97722008 271.955792,7.47162162 274.371429,7.47162162 C277.685907,7.47162162 279.25888,8.2019305 279.820656,10.7861004 L281.899228,10.7861004 C281.61834,7.47162162 279.539768,5.61776062 274.371429,5.61776062 C269.764865,5.61776062 267.517761,7.58397683 267.517761,10.3366795 C267.517761,13.1455598 269.259266,14.3252896 274.202896,14.7747104 C279.146525,15.2803089 280.270077,15.9544402 280.270077,17.5274131 C280.270077,19.8868726 278.135328,20.5610039 274.989382,20.5610039 C270.944595,20.5610039 269.427799,19.6621622 269.034556,17.0218147 L266.955985,17.0218147 C266.955985,20.8418919 269.933398,22.4710425 274.989382,22.4710425 C279.989189,22.4710425 282.517181,20.5610039 282.517181,17.4150579 C282.517181,14.3252896 280.494788,13.4826255 275.663514,12.8084942 Z M287.797876,5.4492278 C286.281081,5.4492278 285.045174,6.68513514 285.045174,8.2019305 C285.045174,9.71872587 286.281081,10.9546332 287.797876,10.9546332 C289.314672,10.9546332 290.550579,9.71872587 290.550579,8.2019305 C290.550579,6.68513514 289.314672,5.4492278 287.797876,5.4492278 Z M287.797876,10.6175676 C286.449614,10.6175676 285.382239,9.55019305 285.382239,8.2019305 C285.382239,6.85366795 286.449614,5.78629344 287.797876,5.78629344 C289.146139,5.78629344 290.213514,6.85366795 290.213514,8.2019305 C290.157336,9.55019305 289.146139,10.6175676 287.797876,10.6175676 Z M289.089961,7.47162162 C289.089961,6.90984556 288.752896,6.57277992 288.022587,6.57277992 L286.78668,6.57277992 L286.78668,9.83108108 L287.179923,9.83108108 L287.179923,8.37046332 L287.854054,8.37046332 L288.809073,9.83108108 L289.258494,9.83108108 L288.247297,8.37046332 C288.696718,8.31428571 289.089961,8.03339768 289.089961,7.47162162 L289.089961,7.47162162 Z M287.123745,8.03339768 L287.123745,6.85366795 L287.966409,6.85366795 C288.359653,6.85366795 288.752896,6.96602317 288.752896,7.41544402 C288.752896,7.86486486 288.41583,8.03339768 287.966409,8.03339768 L287.123745,8.03339768 Z" fill-rule="nonzero"></path>
                </g>
            </g>
        </g>
    </g>
</svg>