<?xml version="1.0" encoding="UTF-8"?>
<svg width="60px" height="15px" viewBox="0 0 60 15" version="1.1" xmlns="http://www.w3.org/2000/svg" xmlns:xlink="http://www.w3.org/1999/xlink">
    <!-- Generator: Sketch 54.1 (76490) - https://sketchapp.com -->
    <title>CTA</title>
    <desc>Created with Sketch.</desc>
    <g id="BB_BANNERS" stroke="none" stroke-width="1" fill="none" fill-rule="evenodd">
        <g id="970x250_2" transform="translate(-455.000000, -216.000000)">
            <g id="CTA" transform="translate(455.000000, 216.000000)">
                <g>
                    <path d="M7.848,11 L6.518,11 L6.518,6.394 L1.632,6.394 L1.632,11 L0.288,11 L0.288,0.948 L1.632,0.948 L1.632,5.176 L6.518,5.176 L6.518,0.948 L7.848,0.948 L7.848,11 Z M15.758,11 L14.624,11 L14.624,9.992 C13.84,10.776 13.084,11.168 12.174,11.168 C11.418,11.168 10.844,10.902 10.522,10.412 C10.242,10.034 10.13,9.502 10.13,8.676 L10.13,3.748 L11.334,3.748 L11.334,8.704 C11.334,9.684 11.684,10.104 12.524,10.104 C13.182,10.104 13.742,9.838 14.568,8.998 L14.568,3.748 L15.758,3.748 L15.758,11 Z M23.556,11 L22.366,11 L22.366,6.044 C22.366,5.064 22.002,4.63 21.162,4.63 C20.518,4.63 19.93,4.896 19.104,5.75 L19.104,11 L17.914,11 L17.914,3.748 L19.048,3.748 L19.048,4.756 C19.846,3.958 20.602,3.58 21.512,3.58 C22.282,3.58 22.842,3.832 23.164,4.336 C23.444,4.7 23.556,5.246 23.556,6.058 L23.556,11 Z M28.652,9.978 L28.652,11 C28.302,11.07 27.966,11.112 27.546,11.112 C26.356,11.112 25.908,10.65 25.908,9.236 L25.908,4.728 L24.83,4.728 L24.83,3.748 L25.908,3.748 L25.908,1.354 L27.084,1.354 L27.084,3.748 L28.652,3.748 L28.652,4.728 L27.084,4.728 L27.084,9.18 C27.084,9.796 27.308,10.076 27.84,10.076 C28.106,10.076 28.344,10.048 28.652,9.978 Z M41.182,11 L39.866,11 L34.924,2.558 L34.896,2.558 L34.896,11 L33.622,11 L33.622,0.948 L35.526,0.948 L39.88,8.564 L39.908,8.564 L39.908,0.948 L41.182,0.948 L41.182,11 Z M46.138,11.168 C44.248,11.168 43.044,9.726 43.044,7.402 C43.044,4.994 44.22,3.58 46.138,3.58 C48.056,3.58 49.218,4.994 49.218,7.402 C49.218,9.726 48.028,11.168 46.138,11.168 Z M46.138,10.174 C47.412,10.174 48.028,9.068 48.028,7.402 C48.028,5.736 47.426,4.574 46.138,4.574 C44.85,4.574 44.248,5.736 44.248,7.402 C44.248,9.068 44.864,10.174 46.138,10.174 Z M57.17,11 L56.022,11 L54.58,5.694 L54.552,5.694 L53.096,11 L51.934,11 L49.876,3.748 L51.08,3.748 L52.522,9.166 L52.55,9.166 L54.006,3.748 L55.168,3.748 L56.582,9.166 L56.61,9.166 L58.094,3.748 L59.298,3.748 L57.17,11 Z" id="HuntNow" fill="#005699" fill-rule="nonzero"></path>
                    <path d="M1,13.5 L58.5,13.5" id="Line-Copy-2" stroke="#005699" stroke-width="1.5" stroke-linecap="square"></path>
                </g>
            </g>
        </g>
    </g>
</svg>